<svg width="39" height="39" viewBox="0 0 39 39" fill="none" xmlns="http://www.w3.org/2000/svg">
<circle cx="19.5" cy="19.5" r="19.5" fill="#392323"/>
<path d="M18.4317 11.5388L10.6676 24.5004C10.5075 24.7777 10.4228 25.092 10.4219 25.4121C10.421 25.7322 10.5039 26.047 10.6624 26.3251C10.821 26.6032 11.0496 26.8349 11.3255 26.9973C11.6014 27.1596 11.915 27.2469 12.2351 27.2504H27.7634C28.0835 27.2469 28.3971 27.1596 28.673 26.9973C28.9489 26.8349 29.1775 26.6032 29.336 26.3251C29.4945 26.047 29.5775 25.7322 29.5766 25.4121C29.5757 25.092 29.491 24.7777 29.3309 24.5004L21.5667 11.5388C21.4033 11.2694 21.1732 11.0466 20.8987 10.892C20.6241 10.7375 20.3143 10.6562 19.9992 10.6562C19.6841 10.6562 19.3744 10.7375 19.0998 10.892C18.8252 11.0466 18.5951 11.2694 18.4317 11.5388V11.5388Z" stroke="#E71717" stroke-width="1.5" stroke-linecap="round" stroke-linejoin="round"/>
<path d="M20 16.25V19.9167" stroke="#E71717" stroke-width="1.5" stroke-linecap="round" stroke-linejoin="round"/>
<path d="M20 23.582H20.0098" stroke="#E71717" stroke-width="1.5" stroke-linecap="round" stroke-linejoin="round"/>
</svg>
