<svg width="30" height="30" viewBox="0 0 30 30" fill="none" xmlns="http://www.w3.org/2000/svg">
<g clip-path="url(#clip0_410_8581)">
<path d="M21.888 23.4399C21.5078 23.79 21.0075 23.98 20.4973 24C19.1066 24 16.1751 23.1498 11.5028 18.5188C6.84042 13.8877 6.03002 10.927 6 9.5867C6 9.07658 6.21009 8.58646 6.55026 8.20637L8.20112 6.56598C8.39121 6.36593 8.62132 6.21589 8.88145 6.11586C9.15159 6.01584 9.42173 5.98585 9.70187 6.00585C9.97201 6.02586 10.2321 6.11588 10.4722 6.25591C10.7124 6.39594 10.9125 6.58598 11.0625 6.81604L12.4032 8.71644C12.5333 8.93649 12.6233 9.18658 12.6433 9.43664C12.6433 9.6967 12.6033 9.94676 12.5033 10.1868L11.5528 11.9072C11.4927 12.0372 11.4627 12.1873 11.4627 12.3373C11.4627 12.4874 11.4927 12.6274 11.5528 12.7674C12.1531 13.9777 12.9735 15.0679 13.984 15.9681C14.8945 16.9783 15.975 17.7986 17.1956 18.3887C17.3257 18.4487 17.4858 18.4787 17.6358 18.4787C17.7759 18.4787 17.936 18.4487 18.0661 18.3887L19.7969 17.4985C20.027 17.3885 20.2872 17.3384 20.5373 17.3585C20.7974 17.3685 21.0476 17.4485 21.2577 17.5885L23.1686 18.9388C23.3987 19.0889 23.5988 19.2889 23.7389 19.529C23.869 19.7691 23.969 20.0291 23.989 20.2991C24.0191 20.5692 23.989 20.8493 23.879 21.1093C23.7689 21.3694 23.6188 21.5994 23.4187 21.7895L21.888 23.4399Z" stroke="#7DCCA1" stroke-width="1.5" stroke-miterlimit="10"/>
</g>
<defs>
<clipPath id="clip0_410_8581">
<rect width="30" height="30" fill="white"/>
</clipPath>
</defs>
</svg>
