<svg width="105" height="24" viewBox="0 0 105 24" fill="none" xmlns="http://www.w3.org/2000/svg">
<path d="M28.8344 19.5619H24.7139V17.4756H20.5935V15.6501H16.3311V17.4756H12.3555V19.5619H8.23797V23.4737H4.11754V19.5619H0V0H28.8344V19.5619Z" fill="black"/>
<path d="M45.8912 5.53569C44.9843 5.53569 44.1034 5.53859 43.2254 5.527C43.1733 5.527 43.0892 5.41689 43.0747 5.34444C42.9241 4.60845 42.5937 3.97676 42.02 3.48127C41.4665 3.00605 40.8117 2.75686 40.1018 2.66993C39.2006 2.55982 38.311 2.62646 37.4649 2.99736C36.2711 3.52183 35.7553 4.99093 36.3928 6.07465C36.6739 6.54986 37.1317 6.81934 37.6272 6.97291C38.3748 7.20473 39.1368 7.39887 39.9018 7.54665C41.1913 7.79584 42.4865 8.00447 43.689 8.56372C44.8655 9.11137 45.729 9.94299 46.0361 11.244C46.6185 13.7128 45.416 16.0483 43.0573 17.0567C41.7766 17.6043 40.435 17.7492 39.0586 17.6507C37.7952 17.5609 36.5927 17.2711 35.509 16.5902C33.8747 15.5644 33.0518 14.0576 32.9127 12.1568C32.9069 12.0872 32.9127 12.0177 32.9127 11.9337C33.0026 11.9279 33.0721 11.9192 33.1416 11.9192C33.9327 11.9308 34.7267 11.9482 35.5206 11.9597C35.6365 11.9597 35.735 11.9511 35.7524 12.122C35.9321 13.7708 37.0853 14.8255 38.5399 15.1587C39.699 15.4224 40.8465 15.3847 41.9505 14.8979C43.0023 14.4372 43.5847 13.2956 43.3094 12.2437C43.1819 11.7569 42.9067 11.386 42.4778 11.1136C41.794 10.679 41.0203 10.5022 40.2466 10.3342C39.2296 10.1139 38.2038 9.94009 37.1954 9.69669C36.416 9.50835 35.6742 9.21279 35.0048 8.74916C33.8921 7.9755 33.3764 6.87729 33.3213 5.56466C33.2286 3.35956 34.3413 1.5978 36.4073 0.821237C38.8297 -0.0886199 41.2376 -0.0132814 43.5065 1.31094C44.9756 2.16864 45.7116 3.53632 45.8883 5.21405C45.897 5.30678 45.8883 5.4024 45.8883 5.52989" fill="black"/>
<path d="M72.7916 15.7291C72.6786 16.3637 72.5772 16.9374 72.4729 17.5198H70.1953V0.417969H72.809V6.78407C72.8322 6.79856 72.8553 6.81015 72.8785 6.82464C72.9046 6.77828 72.9278 6.72612 72.9597 6.68555C74.139 5.23673 75.6979 4.73255 77.5118 4.88902C78.7144 4.99333 79.8039 5.39031 80.734 6.17557C81.7858 7.06514 82.3741 8.22709 82.6435 9.55711C82.9333 10.9856 82.8725 12.4026 82.403 13.7934C81.5569 16.3115 79.149 17.8733 76.4803 17.6676C74.9909 17.5517 73.7449 17.0011 72.7887 15.7291M72.7858 11.3826C72.8032 11.5565 72.8119 11.8781 72.8669 12.1911C72.9191 12.4895 72.9944 12.7851 73.0929 13.0719C73.5971 14.5439 74.8663 15.448 76.431 15.4625C77.9784 15.477 79.3113 14.5526 79.8155 13.0951C80.2327 11.8926 80.2588 10.6698 79.8155 9.47308C79.3142 8.12568 78.3464 7.28826 76.8946 7.13179C75.4516 6.97821 74.2636 7.46212 73.4552 8.71969C72.9626 9.48467 72.8003 10.3395 72.7858 11.3826Z" fill="black"/>
<path d="M56.6058 8.77856C56.6348 8.61919 56.6522 8.45403 56.6899 8.29466C57.0463 6.85163 57.9793 5.9157 59.3238 5.36225C60.4597 4.89863 61.6535 4.78272 62.8589 4.90442C63.4819 4.96817 64.1165 5.08408 64.7047 5.29271C66.2753 5.84905 67.1156 7.0168 67.3271 8.64817C67.3619 8.92634 67.3735 9.20741 67.3735 9.48558C67.3792 11.1083 67.3735 12.7338 67.3764 14.3565C67.3764 14.4666 67.3764 14.5825 67.3937 14.6897C67.4546 15.0288 67.6053 15.1736 67.9472 15.22C68.0747 15.2374 68.2022 15.2374 68.3297 15.2403C68.4485 15.2403 68.5673 15.2403 68.7035 15.2403V17.5178C68.1413 17.5178 67.5763 17.5265 67.0112 17.512C66.7823 17.5062 66.5476 17.4715 66.3245 17.4135C65.5219 17.1991 65.1394 16.7181 65.038 15.8227C65.0293 15.7532 65.0235 15.6836 65.0177 15.5996C64.9829 15.6228 64.9597 15.6315 64.9481 15.646C64.0557 16.9325 62.8184 17.5903 61.2623 17.6627C60.4075 17.7033 59.5701 17.6279 58.753 17.3527C56.5914 16.6254 55.8525 14.7535 56.4001 12.7947C56.7391 11.5806 57.5997 10.8649 58.7356 10.4389C59.5846 10.1202 60.4742 10.0159 61.3754 10.0072C62.4098 9.99557 63.4414 10.0043 64.4729 10.0043H64.7453C64.8004 9.0944 64.809 8.22511 64.0383 7.58474C63.65 7.2631 63.1893 7.10083 62.7025 7.03708C61.981 6.94146 61.2652 6.96464 60.5756 7.23992C59.9034 7.5065 59.4339 7.95853 59.2195 8.66266C59.1992 8.72351 59.1123 8.81043 59.0572 8.81043C58.272 8.81913 57.4867 8.81333 56.7044 8.81043C56.6812 8.81043 56.6609 8.79595 56.6087 8.77566M64.7395 11.9718C64.6729 11.966 64.6178 11.9573 64.5627 11.9573C63.4327 11.9573 62.3055 11.9457 61.1754 11.9747C60.8045 11.9833 60.4278 12.0616 60.0743 12.1746C59.3528 12.4035 58.9471 12.9801 58.924 13.719C58.9008 14.5014 59.2688 15.078 59.9758 15.3881C60.6075 15.6662 61.2652 15.6604 61.9346 15.5822C63.8383 15.3562 64.9221 13.8958 64.7424 11.9689" fill="black"/>
<path d="M92.5059 11.8269C92.4886 12.6092 92.645 13.3192 93.0333 13.9624C93.6128 14.9244 94.4908 15.417 95.6006 15.5098C96.58 15.5909 97.5015 15.4344 98.2838 14.7796C98.6895 14.4405 98.9532 14.0088 99.1184 13.5162C99.156 13.4032 99.1908 13.3221 99.3415 13.325C100.118 13.3336 100.895 13.3279 101.671 13.3308C101.703 13.3308 101.732 13.3394 101.802 13.351C101.773 13.493 101.755 13.6321 101.715 13.7654C101.179 15.6199 99.9645 16.8253 98.1361 17.3903C96.6206 17.8598 95.0906 17.7902 93.6042 17.2628C91.5932 16.5471 90.3936 15.0867 89.9242 13.0236C89.5764 11.4937 89.6634 9.97819 90.2371 8.52068C90.9036 6.82846 92.1206 5.68389 93.8736 5.15652C95.334 4.71898 96.806 4.73637 98.2433 5.23476C100.361 5.97076 101.552 7.5181 101.915 9.69712C102.016 10.3114 101.961 10.9547 101.987 11.5835C101.996 11.8095 101.886 11.8327 101.694 11.8327C98.7475 11.8269 95.8006 11.8298 92.8537 11.8298H92.5031L92.5059 11.8269ZM99.2719 9.89416C99.1357 8.20194 97.8869 6.94437 95.8614 6.98783C93.7606 7.03129 92.6421 8.66266 92.6334 9.89416H99.2719Z" fill="black"/>
<path d="M47.1211 7.3216V5.02378H49.2914V1.52344H51.9486V5.00929H55.0114V7.31291H51.9717C51.9659 7.42592 51.9572 7.50995 51.9572 7.59398C51.9572 9.69187 51.9572 11.7869 51.9572 13.8818C51.9572 13.9369 51.9572 13.9949 51.9601 14.0499C52.0094 14.8439 52.3108 15.1626 53.1047 15.2003C53.6871 15.2292 54.2725 15.2177 54.8578 15.2235C54.9534 15.2235 55.0461 15.2235 55.1562 15.2235V17.5184C55.1041 17.5242 55.0432 17.5387 54.9824 17.5358C53.9972 17.5213 53.012 17.5416 52.0297 17.4836C51.0155 17.4257 50.1665 17.0229 49.6739 16.0725C49.4276 15.5972 49.3204 15.0728 49.3146 14.5425C49.3001 12.775 49.3059 11.0074 49.303 9.23694C49.303 8.669 49.2972 8.10107 49.3059 7.53313C49.3059 7.36217 49.2509 7.31291 49.0828 7.31581C48.5235 7.3245 47.9614 7.31581 47.4022 7.31581H47.1211" fill="black"/>
<path d="M87.5786 0.421875H84.9766V17.5237H87.5786V0.421875Z" fill="black"/>
<path d="M103.094 4.53623C102.251 4.53623 101.602 3.86108 101.602 2.99758C101.602 2.18335 102.251 1.54297 103.094 1.54297C103.937 1.54297 104.586 2.18335 104.586 2.99758C104.586 3.86397 103.937 4.53623 103.094 4.53623ZM103.094 1.90228C102.456 1.90228 101.978 2.38618 101.978 2.99758C101.978 3.65824 102.456 4.17692 103.094 4.17692C103.731 4.17692 104.209 3.65824 104.209 2.99758C104.209 2.38618 103.734 1.90228 103.094 1.90228ZM102.813 3.79733H102.422V2.24999H103.091C103.311 2.24999 103.395 2.27027 103.468 2.30215C103.639 2.38328 103.752 2.54265 103.752 2.75998C103.752 3.00917 103.63 3.17144 103.421 3.23519L103.836 3.80023H103.34L102.972 3.26127H102.81V3.80023L102.813 3.79733ZM103.076 2.92224C103.189 2.92224 103.262 2.91355 103.294 2.89327C103.337 2.87298 103.358 2.82662 103.358 2.75708C103.358 2.68464 103.329 2.63827 103.294 2.61799C103.265 2.6064 103.192 2.59771 103.076 2.59771H102.813V2.92514H103.076V2.92224Z" fill="black"/>
</svg>
