<svg width="50" height="50" viewBox="0 0 50 50" fill="none" xmlns="http://www.w3.org/2000/svg">
<g clip-path="url(#clip0_410_7451)">
<path d="M36.25 42.7096H13.75C9.625 42.7096 6.25 39.3555 6.25 35.2513V20.3347C6.25 16.2305 9.625 12.8763 13.75 12.8763H16.4792C17.125 12.8763 17.7083 12.5429 18.0625 12.0221L20.5417 8.14714C20.8958 7.60548 21.4792 7.29297 22.125 7.29297H27.7083C28.3333 7.29297 28.9167 7.6055 29.2708 8.1055L31.9583 12.0638C32.3125 12.5847 32.8958 12.8763 33.5208 12.8763H36.2708C40.3958 12.8763 43.7708 16.2305 43.7708 20.3347V35.2513C43.7708 39.3555 40.3958 42.7096 36.2708 42.7096H36.25Z" stroke="#20201F" stroke-width="1.5" stroke-linecap="round" stroke-linejoin="round"/>
<path d="M25 33.4375C27.5888 33.4375 29.6875 31.3388 29.6875 28.75C29.6875 26.1612 27.5888 24.0625 25 24.0625C22.4112 24.0625 20.3125 26.1612 20.3125 28.75C20.3125 31.3388 22.4112 33.4375 25 33.4375Z" stroke="#20201F" stroke-width="1.5" stroke-linecap="round" stroke-linejoin="round"/>
<path d="M36.25 20.3125H32.5" stroke="#20201F" stroke-width="1.5" stroke-linecap="round" stroke-linejoin="round"/>
</g>
<defs>
<clipPath id="clip0_410_7451">
<rect width="50" height="50" fill="white"/>
</clipPath>
</defs>
</svg>
