<svg width="48" height="34" viewBox="0 0 48 34" fill="none" xmlns="http://www.w3.org/2000/svg">
<path d="M8.07888 33H39.9211C43.8311 33 47 29.8507 47 25.965V8.03483C47 4.14911 43.8311 1 39.9211 1H8.07888C4.16888 1 1 4.14911 1 8.03483V25.965C1 29.8507 4.16888 33 8.07888 33V33Z" stroke="#20201F" stroke-width="1.5" stroke-miterlimit="10" stroke-linecap="round"/>
<g clip-path="url(#clip0_410_7452)">
<path d="M14 18.2938C16.04 18.2938 17.6933 16.6804 17.6933 14.6937C17.6933 12.7071 16.04 11.0938 14 11.0938C11.96 11.0938 10.3066 12.7071 10.3066 14.6937C10.3066 16.6804 11.96 18.2938 14 18.2938Z" stroke="#20201F" stroke-width="1.5" stroke-linecap="round" stroke-linejoin="round"/>
<path d="M10 22.5122C11.7933 19.5655 16.16 19.5522 17.98 22.4788L18 22.5122" stroke="#20201F" stroke-width="1.5" stroke-linecap="round" stroke-linejoin="round"/>
</g>
<line x1="25.75" y1="15.25" x2="37.25" y2="15.25" stroke="#20201F" stroke-width="1.5" stroke-linecap="round"/>
<line x1="25.75" y1="20.25" x2="37.25" y2="20.25" stroke="#20201F" stroke-width="1.5" stroke-linecap="round"/>
<defs>
<clipPath id="clip0_410_7452">
<rect width="20" height="20" fill="white" transform="translate(4 7)"/>
</clipPath>
</defs>
</svg>
