<svg width="30" height="30" viewBox="0 0 30 30" fill="none" xmlns="http://www.w3.org/2000/svg">
<path d="M21.6667 10.8C21.6667 8.99653 20.9643 7.26692 19.714 5.99167C18.4638 4.71643 16.7681 4 15 4C13.2319 4 11.5362 4.71643 10.286 5.99167C9.03571 7.26692 8.33333 8.99653 8.33333 10.8C8.33333 18.7333 5 21 5 21H25C25 21 21.6667 18.7333 21.6667 10.8Z" stroke="#FFF7C6" stroke-width="1.5" stroke-linecap="round" stroke-linejoin="round"/>
<path d="M17 25C16.7968 25.3042 16.505 25.5566 16.154 25.7321C15.803 25.9076 15.4051 26 15 26C14.5949 26 14.197 25.9076 13.846 25.7321C13.495 25.5566 13.2032 25.3042 13 25" stroke="#FFF7C6" stroke-width="1.5" stroke-linecap="round" stroke-linejoin="round"/>
</svg>
